<svg width="46" height="46" viewBox="0 0 46 46" fill="none" xmlns="http://www.w3.org/2000/svg">
<path d="M23.1162 44.2318C35.061 44.2318 44.7442 34.5486 44.7442 22.6038C44.7442 10.659 35.061 0.97583 23.1162 0.97583C11.1715 0.97583 1.48828 10.659 1.48828 22.6038C1.48828 34.5486 11.1715 44.2318 23.1162 44.2318Z" fill="#FAC611"/>
<path d="M23.7482 32.924H22.3821C21.8143 32.924 21.3589 32.4627 21.3589 31.9008V30.647C20.253 30.4874 19.1943 30.1088 18.461 29.5825C18.0884 29.3164 17.9405 28.8373 18.0943 28.4056L18.6148 26.9507C18.7212 26.655 18.9578 26.4243 19.2594 26.3238C19.561 26.2233 19.8863 26.2706 20.1465 26.4421C20.8621 26.9211 21.8202 27.205 22.7073 27.205C23.4288 27.205 24.2687 26.9152 24.2687 26.0991C24.2687 25.6614 24.1267 25.141 22.453 24.4608C20.3712 23.6447 18.2303 22.4441 18.2303 19.7532C18.2303 17.7365 19.5196 16.0923 21.5127 15.4477V14.0579C21.5127 13.4901 21.974 13.0347 22.5358 13.0347H23.8842C24.452 13.0347 24.9074 13.496 24.9074 14.0579V15.2348C25.759 15.3649 26.5279 15.637 27.2257 16.045C27.6574 16.2993 27.8408 16.8257 27.6634 17.2929L27.1193 18.7301C27.0128 19.008 26.7881 19.2328 26.5101 19.3333C26.2262 19.4338 25.9187 19.4102 25.6585 19.2564C25.3155 19.0612 24.5998 18.6532 23.4289 18.6532C22.6186 18.6532 22.1514 18.9607 22.1514 19.4989C22.1514 19.8951 22.2993 20.2382 24.2095 21.0307C26.0725 21.7936 28.2134 23.0415 28.2134 25.9571C28.2134 28.0685 26.865 29.7954 24.7773 30.4578V31.9126C24.7714 32.4627 24.3101 32.924 23.7482 32.924Z" fill="#002557"/>
<g opacity="0.3">
<path opacity="0.3" d="M37.7188 6.65932C39.8124 9.98897 41.0307 13.9278 41.0307 18.1505C41.0307 30.0911 31.3493 39.7784 19.4028 39.7784C13.7725 39.7784 8.65088 37.6257 4.80078 34.1009C8.62722 40.1865 15.3989 44.2377 23.1168 44.2377C35.0634 44.2377 44.7448 34.5563 44.7448 22.6097C44.7448 16.2934 42.0361 10.61 37.7188 6.65932Z" fill="#002557"/>
</g>
<g opacity="0.3">
<path opacity="0.3" d="M8.15332 14.9923L23.7548 39.4059C23.7548 39.4059 25.3634 39.5537 28.9947 38.3354L11.5007 10.4858C11.5007 10.4858 9.43077 11.639 8.15332 14.9923Z" fill="white"/>
</g>
<g opacity="0.3">
<path opacity="0.3" d="M14.9307 7.94859L33.093 36.1117C33.093 36.1117 33.9801 35.4079 36.464 32.924L19.3781 5.73079C19.3781 5.73079 17.2017 6.19801 14.9307 7.94859Z" fill="white"/>
</g>
<g opacity="0.7">
<path opacity="0.7" d="M23.1162 0.98175C11.1697 0.98175 1.48828 10.6632 1.48828 22.6097C1.48828 34.5563 11.1697 44.2377 23.1162 44.2377C35.0628 44.2377 44.7442 34.5563 44.7442 22.6097C44.7442 10.6632 35.0628 0.98175 23.1162 0.98175ZM24.0921 43.5812C13.0445 43.5812 4.0905 34.6272 4.0905 23.5796C4.0905 12.532 13.0445 3.57805 24.0921 3.57805C35.1397 3.57805 44.0937 12.532 44.0937 23.5796C44.0937 34.6272 35.1397 43.5812 24.0921 43.5812Z" fill="white"/>
</g>
<path d="M23.1166 40.0505C18.4563 40.0505 14.0739 38.2349 10.7797 34.9407C7.48556 31.6465 5.66992 27.2641 5.66992 22.6038C5.66992 17.9435 7.48556 13.5611 10.7797 10.2669C14.0739 6.97276 18.4563 5.15712 23.1166 5.15712C27.7769 5.15712 32.1593 6.97276 35.4535 10.2669C38.7476 13.5611 40.5633 17.9435 40.5633 22.6038C40.5633 27.2641 38.7476 31.6465 35.4535 34.9407C32.1593 38.2349 27.7769 40.0505 23.1166 40.0505ZM23.1166 6.47597C14.2218 6.47597 6.98877 13.7149 6.98877 22.6038C6.98877 31.4927 14.2277 38.7316 23.1166 38.7316C32.0055 38.7316 39.2444 31.4927 39.2444 22.6038C39.2444 13.7149 32.0115 6.47597 23.1166 6.47597Z" fill="#002557"/>
<path d="M23.1165 45.2194C20.0649 45.2194 17.1019 44.6221 14.3163 43.4393C11.6254 42.2978 9.20652 40.6715 7.13066 38.5956C5.0548 36.5197 3.4225 34.1009 2.28699 31.4099C1.11008 28.6244 0.506836 25.6614 0.506836 22.6097C0.506836 19.558 1.10416 16.595 2.28699 13.8095C3.42842 11.1186 5.0548 8.69968 7.13066 6.62382C9.20652 4.54796 11.6254 2.91567 14.3163 1.78015C17.1019 0.603243 20.0649 0 23.1165 0C26.1682 0 29.1312 0.597329 31.9168 1.78015C34.6077 2.92158 37.0266 4.54796 39.1024 6.62382C41.1783 8.69968 42.8106 11.1186 43.9461 13.8095C45.123 16.595 45.7263 19.558 45.7263 22.6097C45.7263 25.6614 45.1289 28.6244 43.9461 31.4099C42.8047 34.1009 41.1783 36.5197 39.1024 38.5956C37.0266 40.6715 34.6077 42.3038 31.9168 43.4393C29.1312 44.6221 26.1682 45.2194 23.1165 45.2194ZM23.1165 1.96941C11.7378 1.96941 2.47624 11.2309 2.47624 22.6097C2.47624 33.9885 11.7378 43.25 23.1165 43.25C34.4953 43.25 43.7569 33.9885 43.7569 22.6097C43.7569 11.2309 34.4953 1.96941 23.1165 1.96941Z" fill="#002557"/>
</svg>
